<svg width="103" height="87" viewBox="0 0 103 87" fill="none" xmlns="http://www.w3.org/2000/svg">
<path fill-rule="evenodd" clip-rule="evenodd" d="M12.9445 17.9784H17.0287C17.0287 20.0205 18.254 21.2457 19.8876 21.2457H32.1402C32.5486 21.2457 33.3654 21.2457 33.7739 20.8373C34.1823 21.2457 34.9991 21.2457 35.4075 21.2457H38.2665C38.6749 21.2457 39.4917 21.2457 39.9001 20.8373C40.3086 21.2457 40.717 21.2457 41.1254 21.2457H53.7864C55.0116 21.2457 56.2369 19.6121 56.2369 17.9784H61.1379C63.5884 17.9784 65.6305 20.0205 65.6305 22.471V70.256C65.6305 72.7065 63.5884 74.7486 61.1379 74.7486H41.1254C41.1254 74.7486 41.1254 74.7486 41.1254 74.3402C41.1254 68.2139 36.2244 63.3129 30.0981 63.3129C23.9718 63.3129 19.0708 68.2139 19.0708 74.3402C19.0708 74.7486 19.0708 74.7486 19.0708 74.7486H12.9445C10.494 74.7486 8.86032 72.7065 8.86032 70.256V40.8498C8.86032 44.934 10.494 48.2014 15.395 47.793L15.8034 51.8772C15.8034 55.1445 18.254 58.0034 21.9297 58.0034H32.957C36.2244 58.0034 39.0833 55.1445 39.0833 51.8772V32.2731C39.0833 29.0057 36.2244 26.1468 32.957 26.1468H8.86032V22.471C8.86032 20.0205 10.494 17.9784 12.9445 17.9784V17.9784Z" stroke="#EF7F1A" stroke-width="2" stroke-miterlimit="22.9256" stroke-linecap="round" stroke-linejoin="round"/>
<path fill-rule="evenodd" clip-rule="evenodd" d="M69.3063 29.4142H82.3757C84.4178 29.4142 84.8262 31.4563 86.0515 33.09L101.163 50.652V70.2561C101.163 72.2982 99.5293 73.9318 97.4872 73.9318H94.6283C94.2198 67.8055 89.3188 63.3129 83.1925 63.3129C77.4747 63.3129 72.5736 67.8055 72.1652 73.9318H69.3063C67.2642 73.9318 65.6305 72.2982 65.6305 70.2561V33.09C65.6305 31.0479 67.2642 29.4142 69.3063 29.4142V29.4142Z" stroke="#EF7F1A" stroke-width="2" stroke-miterlimit="22.9256" stroke-linecap="round" stroke-linejoin="round"/>
<path d="M30.0981 85.3676C36.1883 85.3676 41.1254 80.4305 41.1254 74.3403C41.1254 68.2501 36.1883 63.313 30.0981 63.313C24.0079 63.313 19.0708 68.2501 19.0708 74.3403C19.0708 80.4305 24.0079 85.3676 30.0981 85.3676Z" stroke="#EF7F1A" stroke-width="2" stroke-miterlimit="22.9256" stroke-linecap="round" stroke-linejoin="round"/>
<path d="M30.0981 79.6498C33.0304 79.6498 35.4076 77.2727 35.4076 74.3403C35.4076 71.408 33.0304 69.0309 30.0981 69.0309C27.1658 69.0309 24.7887 71.408 24.7887 74.3403C24.7887 77.2727 27.1658 79.6498 30.0981 79.6498Z" stroke="#EF7F1A" stroke-miterlimit="22.9256" stroke-linecap="round" stroke-linejoin="round"/>
<path d="M83.1926 85.3676C89.2828 85.3676 94.2199 80.4305 94.2199 74.3403C94.2199 68.2501 89.2828 63.313 83.1926 63.313C77.1023 63.313 72.1653 68.2501 72.1653 74.3403C72.1653 80.4305 77.1023 85.3676 83.1926 85.3676Z" stroke="#EF7F1A" stroke-width="2" stroke-miterlimit="22.9256" stroke-linecap="round" stroke-linejoin="round"/>
<path d="M83.1926 79.6498C86.1249 79.6498 88.502 77.2727 88.502 74.3403C88.502 71.408 86.1249 69.0309 83.1926 69.0309C80.2603 69.0309 77.8831 71.408 77.8831 74.3403C77.8831 77.2727 80.2603 79.6498 83.1926 79.6498Z" stroke="#EF7F1A" stroke-miterlimit="22.9256" stroke-linecap="round" stroke-linejoin="round"/>
<path fill-rule="evenodd" clip-rule="evenodd" d="M70.5316 35.5405H79.9252L90.9525 48.2015V51.0604H70.5316V35.5405Z" stroke="#EF7F1A" stroke-miterlimit="22.9256" stroke-linecap="round" stroke-linejoin="round"/>
<path d="M77.0662 54.7363H73.3904C72.4882 54.7363 71.7567 55.3763 71.7567 56.1658C71.7567 56.9553 72.4882 57.5953 73.3904 57.5953H77.0662C77.9684 57.5953 78.6999 56.9553 78.6999 56.1658C78.6999 55.3763 77.9684 54.7363 77.0662 54.7363Z" stroke="#EF7F1A" stroke-miterlimit="22.9256" stroke-linecap="round" stroke-linejoin="round"/>
<path fill-rule="evenodd" clip-rule="evenodd" d="M4.36771 26.1469H32.957C36.2244 26.1469 39.0833 29.0058 39.0833 32.2732V51.8773C39.0833 55.1446 36.2244 58.0036 32.957 58.0036H21.9297C18.2539 58.0036 15.8034 55.1446 15.8034 51.8773L15.395 47.7931C9.67715 48.6099 8.45189 44.1173 8.86031 39.6247C-0.941738 39.2163 -0.1249 26.1469 4.36771 26.1469V26.1469Z" stroke="#EF7F1A" stroke-width="2" stroke-miterlimit="22.9256" stroke-linecap="round" stroke-linejoin="round"/>
<path fill-rule="evenodd" clip-rule="evenodd" d="M20.7044 2.05014L30.9149 8.58484C32.1402 8.99325 32.957 9.81009 33.7738 10.6269C32.957 11.0353 32.1402 12.669 32.1402 13.8943H19.8876C19.8876 13.8943 19.8876 13.8943 19.4792 13.8943H19.0708V14.3027H18.6623H18.2539C18.2539 14.3027 18.2539 14.3027 18.2539 14.7111H17.8455V15.1195L17.4371 15.528C17.4371 15.9364 17.4371 15.9364 17.0287 16.3448C17.0287 16.7532 17.0287 16.7532 17.0287 17.1616C17.0287 16.7532 17.0287 16.7532 17.0287 16.3448V6.95116C17.0287 4.50065 19.0708 0.824879 20.7044 2.05014V2.05014Z" stroke="#EF7F1A" stroke-width="2" stroke-miterlimit="22.9256" stroke-linecap="round" stroke-linejoin="round"/>
<path fill-rule="evenodd" clip-rule="evenodd" d="M19.8876 13.8941H32.1402V17.1615V17.9783C32.1402 19.2035 32.957 20.0204 33.7738 20.8372C33.3654 21.2456 32.5486 21.2456 32.1402 21.2456H19.8876C18.2539 21.2456 17.0287 19.612 17.0287 17.5699C17.0287 15.5278 18.2539 13.8941 19.8876 13.8941V13.8941Z" stroke="#EF7F1A" stroke-width="1.40476" stroke-miterlimit="22.9256" stroke-linecap="round" stroke-linejoin="round"/>
<path fill-rule="evenodd" clip-rule="evenodd" d="M52.5611 2.05015L42.3507 8.17643C41.1254 8.99327 40.3086 9.40169 39.4917 10.2185C40.717 11.0354 41.1254 12.2606 41.1254 13.8943H53.378H53.7864C55.0116 13.8943 55.8285 15.1195 56.2369 16.7532C56.2369 16.3448 56.2369 16.3448 56.2369 16.3448V6.95117C56.2369 4.09224 54.6032 0.82489 52.5611 2.05015V2.05015Z" stroke="#EF7F1A" stroke-width="2" stroke-miterlimit="22.9256" stroke-linecap="round" stroke-linejoin="round"/>
<path fill-rule="evenodd" clip-rule="evenodd" d="M41.1255 13.8941H53.7865C55.0117 13.8941 56.237 15.5278 56.237 17.5699C56.237 19.612 55.0117 21.2456 53.7865 21.2456H41.1255C40.7171 21.2456 40.3087 21.2456 39.9002 20.8372C40.7171 20.0204 41.1255 19.2035 41.1255 17.9783V17.1615V13.8941V13.8941Z" stroke="#EF7F1A" stroke-width="1.40476" stroke-miterlimit="22.9256" stroke-linecap="round" stroke-linejoin="round"/>
<path d="M38.2665 9.81024H34.9992C33.4202 9.81024 32.1402 11.6388 32.1402 13.8944V17.1618C32.1402 19.4174 33.4202 21.246 34.9992 21.246H38.2665C39.8455 21.246 41.1254 19.4174 41.1254 17.1618V13.8944C41.1254 11.6388 39.8455 9.81024 38.2665 9.81024Z" stroke="#EF7F1A" stroke-width="2" stroke-miterlimit="22.9256" stroke-linecap="round" stroke-linejoin="round"/>
<path d="M12.1276 38.8078H33.3654" stroke="#EF7F1A" stroke-miterlimit="22.9256" stroke-linecap="round" stroke-linejoin="round"/>
<path d="M18.6624 46.9763H33.7738" stroke="#EF7F1A" stroke-miterlimit="22.9256" stroke-linecap="round" stroke-linejoin="round"/>
<path d="M51.9022 57.6884L46.8429 57.6884L46.8429 58.5609L46.0746 58.5609L46.0746 57.6884L45.4546 57.6884C45.0631 57.6884 44.7723 57.6537 44.5821 57.5842C44.326 57.489 44.1193 57.3226 43.962 57.0848C43.801 56.8434 43.7206 56.5068 43.7206 56.0751C43.7206 55.7971 43.7535 55.4898 43.8193 55.1533L44.6808 55.3014C44.6443 55.5063 44.626 55.7002 44.626 55.8831C44.626 56.183 44.69 56.3952 44.818 56.5196C44.9461 56.644 45.1857 56.7062 45.5369 56.7062L46.0746 56.7062L46.0746 55.5703L46.8429 55.5703L46.8429 56.7062L51.9022 56.7062L51.9022 57.6884ZM51.9022 54.8076L46.0746 54.8076L46.0746 53.9186L46.9581 53.9186C46.5447 53.6918 46.2722 53.4833 46.1405 53.293C46.0088 53.0992 45.9429 52.887 45.9429 52.6565C45.9429 52.3236 46.049 51.9852 46.2612 51.6414L47.1776 51.9816C47.0349 52.223 46.9636 52.4645 46.9636 52.7059C46.9636 52.9217 47.0294 53.1156 47.1611 53.2876C47.2892 53.4595 47.4684 53.582 47.6989 53.6552C48.0501 53.765 48.4342 53.8198 48.8512 53.8198L51.9022 53.8198L51.9022 54.8076ZM50.0255 47.0649L50.1517 46.0443C50.748 46.2052 51.2108 46.5034 51.54 46.9387C51.8693 47.374 52.0339 47.9301 52.0339 48.6068C52.0339 49.4592 51.7723 50.136 51.2492 50.6372C50.7224 51.1347 49.9853 51.3834 49.0378 51.3834C48.0574 51.3834 47.2965 51.131 46.7551 50.6262C46.2136 50.1214 45.9429 49.4665 45.9429 48.6617C45.9429 47.8825 46.2081 47.246 46.7386 46.7521C47.269 46.2583 48.0153 46.0113 48.9774 46.0113C49.036 46.0113 49.1238 46.0132 49.2408 46.0168L49.2408 50.3628C49.881 50.3262 50.3712 50.1451 50.7114 49.8196C51.0517 49.494 51.2218 49.0879 51.2218 48.6014C51.2218 48.2392 51.1266 47.9301 50.9364 47.674C50.7462 47.4179 50.4426 47.2149 50.0255 47.0649ZM48.4287 50.3079L48.4287 47.0539C47.9385 47.0978 47.5708 47.2222 47.3257 47.4271C46.9453 47.7417 46.7551 48.1496 46.7551 48.6507C46.7551 49.1044 46.9069 49.4867 47.2105 49.7976C47.5141 50.1049 47.9202 50.275 48.4287 50.3079ZM50.0255 40.8093L50.1517 39.7887C50.748 39.9496 51.2108 40.2478 51.54 40.6831C51.8693 41.1184 52.0339 41.6745 52.0339 42.3513C52.0339 43.2036 51.7723 43.8804 51.2492 44.3816C50.7224 44.8791 49.9853 45.1279 49.0378 45.1279C48.0574 45.1279 47.2965 44.8754 46.7551 44.3706C46.2136 43.8658 45.9429 43.211 45.9429 42.4061C45.9429 41.6269 46.2081 40.9904 46.7386 40.4965C47.269 40.0027 48.0153 39.7557 48.9774 39.7557C49.036 39.7557 49.1238 39.7576 49.2408 39.7612L49.2408 44.1072C49.881 44.0706 50.3712 43.8896 50.7114 43.564C51.0517 43.2384 51.2218 42.8323 51.2218 42.3458C51.2218 41.9836 51.1266 41.6745 50.9364 41.4184C50.7462 41.1623 50.4426 40.9593 50.0255 40.8093ZM48.4287 44.0523L48.4287 40.7983C47.9385 40.8422 47.5708 40.9666 47.3257 41.1715C46.9453 41.4861 46.7551 41.894 46.7551 42.3952C46.7551 42.8488 46.9069 43.2311 47.2105 43.542C47.5141 43.8493 47.9202 44.0194 48.4287 44.0523Z" fill="#EF7F1A"/>
</svg>
