<svg width="93" height="88" viewBox="0 0 93 88" fill="none" xmlns="http://www.w3.org/2000/svg">
<path fill-rule="evenodd" clip-rule="evenodd" d="M15.8937 6.75409H44.0419C44.0419 7.8652 44.7826 8.60594 45.8937 8.60594C47.0048 8.60594 47.7456 7.8652 47.7456 6.75409H75.8937C81.4493 6.75409 85.5233 11.1985 85.5233 16.3837V41.9393C84.7826 41.9393 84.0419 42.68 84.0419 43.7911C84.0419 44.5319 84.7826 45.2726 85.5233 45.2726V71.1985C85.5233 76.3837 81.4493 80.8282 75.8937 80.8282H47.7456C47.7456 79.7171 47.0048 78.9763 45.8937 78.9763C44.7826 78.9763 44.0419 79.7171 44.0419 80.8282H15.8937C10.7085 80.8282 6.26409 76.3837 6.26409 71.1985V45.2726C7.3752 45.2726 8.11594 44.5319 8.11594 43.7911C8.11594 42.68 7.3752 41.9393 6.26409 41.9393V16.3837C6.26409 11.1985 10.7085 6.75409 15.8937 6.75409V6.75409Z" stroke="#EF7F1A" stroke-miterlimit="22.9256" stroke-linecap="round" stroke-linejoin="round"/>
<path d="M81.079 1.93927H11.079C5.55613 1.93927 1.07898 6.91388 1.07898 13.0504V74.9022C1.07898 81.0387 5.55613 86.0134 11.079 86.0134H81.079C86.6018 86.0134 91.079 81.0387 91.079 74.9022V13.0504C91.079 6.91388 86.6018 1.93927 81.079 1.93927Z" stroke="#EF7F1A" stroke-width="2" stroke-miterlimit="22.9256" stroke-linecap="round" stroke-linejoin="round"/>
<path d="M46.2642 74.5319C63.2419 74.5319 77.0049 60.7688 77.0049 43.7911C77.0049 26.8135 63.2419 13.0504 46.2642 13.0504C29.2866 13.0504 15.5235 26.8135 15.5235 43.7911C15.5235 60.7688 29.2866 74.5319 46.2642 74.5319Z" stroke="#EF7F1A" stroke-width="2" stroke-miterlimit="22.9256" stroke-linecap="round" stroke-linejoin="round"/>
<path d="M45.8937 18.9763C45.8937 18.9763 45.8937 18.9763 46.2641 18.9763C59.5974 18.9763 70.7085 30.0874 70.7085 43.7911C70.7085 57.1245 59.5974 68.2356 46.2641 68.2356C32.5604 68.2356 21.4493 57.1245 21.4493 43.7911C21.4493 35.643 25.5234 27.8652 32.5604 23.0504" stroke="#EF7F1A" stroke-miterlimit="22.9256" stroke-linecap="round" stroke-linejoin="round"/>
<path fill-rule="evenodd" clip-rule="evenodd" d="M45.8938 78.9763C47.0049 78.9763 47.7457 79.717 47.7457 80.8282C47.7457 81.5689 47.0049 82.68 45.8938 82.68C44.7827 82.68 44.042 81.5689 44.042 80.8282C44.042 79.717 44.7827 78.9763 45.8938 78.9763ZM4.78269 43.7911C4.78269 42.68 5.52343 41.9393 6.26417 41.9393C7.37528 41.9393 8.11603 42.68 8.11603 43.7911C8.11603 44.5318 7.37528 45.2726 6.26417 45.2726C5.52343 45.2726 4.78269 44.5318 4.78269 43.7911V43.7911ZM45.8938 5.27258C47.0049 5.27258 47.7457 6.01332 47.7457 6.75406C47.7457 7.86518 47.0049 8.60592 45.8938 8.60592C44.7827 8.60592 44.042 7.86518 44.042 6.75406C44.042 6.01332 44.7827 5.27258 45.8938 5.27258V5.27258ZM84.0419 43.7911C84.0419 42.68 84.7827 41.9393 85.5234 41.9393C86.6345 41.9393 87.3753 42.68 87.3753 43.7911C87.3753 44.5318 86.6345 45.2726 85.5234 45.2726C84.7827 45.2726 84.0419 44.5318 84.0419 43.7911Z" stroke="#EF7F1A" stroke-miterlimit="22.9256" stroke-linecap="round" stroke-linejoin="round"/>
<path d="M45.8937 45.643C46.9165 45.643 47.7456 44.8139 47.7456 43.7911C47.7456 42.7684 46.9165 41.9393 45.8937 41.9393C44.871 41.9393 44.0419 42.7684 44.0419 43.7911C44.0419 44.8139 44.871 45.643 45.8937 45.643Z" stroke="#EF7F1A" stroke-miterlimit="22.9256" stroke-linecap="round" stroke-linejoin="round"/>
<path d="M45.8939 41.9393V19.3467" stroke="#EF7F1A" stroke-miterlimit="22.9256" stroke-linecap="round" stroke-linejoin="round"/>
<path d="M44.0419 43.7911H32.1901" stroke="#EF7F1A" stroke-miterlimit="22.9256" stroke-linecap="round" stroke-linejoin="round"/>
<path d="M24.7826 26.3837L32.5604 23.0504L28.8567 30.4578" stroke="#EF7F1A" stroke-miterlimit="22.9256" stroke-linecap="round" stroke-linejoin="round"/>
</svg>
