<svg width="101" height="75" viewBox="0 0 101 75" fill="none" xmlns="http://www.w3.org/2000/svg">
<path fill-rule="evenodd" clip-rule="evenodd" d="M6.12179 54.3891L23.1617 47.8829L42.9899 55.3185C47.3273 56.8676 53.2139 57.4872 56.0022 56.248L78.309 47.8829L92.8703 53.4596C97.2078 55.0087 98.447 57.1774 95.6587 58.4167L56.0022 72.978C53.2139 74.2173 47.3273 73.5977 42.9899 72.0486L8.91014 59.3461C4.57271 57.7971 3.33345 55.6283 6.12179 54.3891V54.3891Z" stroke="#EF7F1A" stroke-width="2" stroke-miterlimit="22.9256"/>
<path fill-rule="evenodd" clip-rule="evenodd" d="M18.2047 55.0087L29.9777 50.6713L42.99 55.3185C47.3274 56.8676 53.2139 57.4872 56.0023 56.248L71.8029 50.6713L81.717 54.0792C84.8152 55.3185 85.7446 56.8676 83.5759 57.797L54.763 68.6406C52.5943 69.2602 48.2569 68.9504 45.1587 67.7112L20.0636 58.4167C16.9654 57.4872 16.036 55.6283 18.2047 55.0087V55.0087Z" stroke="#EF7F1A" stroke-miterlimit="22.9256" stroke-linecap="round" stroke-linejoin="round"/>
<path fill-rule="evenodd" clip-rule="evenodd" d="M6.12179 37.659L28.4286 29.6038L42.9899 34.8706C47.3273 36.4197 53.2139 37.0393 56.0022 35.8001L73.3519 29.6038L92.8703 36.7295C97.2078 38.2786 98.447 40.4473 95.6587 41.6866L56.0022 56.248C53.2139 57.4872 47.3273 56.8676 42.9899 55.3185L8.91014 42.616C4.57271 41.067 3.33345 38.8982 6.12179 37.659V37.659Z" stroke="#EF7F1A" stroke-width="2" stroke-miterlimit="22.9256"/>
<path fill-rule="evenodd" clip-rule="evenodd" d="M18.2047 38.2787L34.9348 32.0823L42.99 34.8707C47.3274 36.4198 53.2139 37.0394 56.0023 35.8001L66.8459 32.0823L81.717 37.659C84.8152 38.5885 85.7446 40.4474 83.5759 41.067L54.763 51.9106C52.5943 52.5302 48.2569 52.2204 45.1587 51.2909L20.0636 41.9965C16.9654 40.7572 16.036 38.8983 18.2047 38.2787V38.2787Z" stroke="#EF7F1A" stroke-miterlimit="22.9256"/>
<path d="M42.9562 3.567L8.78627 16.2935C4.41491 17.9216 4.41491 20.5612 8.78627 22.1893L42.9562 34.9158C47.3275 36.5439 54.4149 36.5439 58.7863 34.9158L92.9562 22.1893C97.3275 20.5612 97.3275 17.9216 92.9562 16.2935L58.7863 3.567C54.4149 1.9389 47.3275 1.9389 42.9562 3.567Z" stroke="#EF7F1A" stroke-width="2" stroke-miterlimit="22.9256"/>
<path d="M45.0744 7.7692L20.0655 17.0837C16.8661 18.2753 16.8661 20.2073 20.0655 21.3989L45.0744 30.7135C48.2738 31.9051 53.4611 31.9051 56.6605 30.7135L81.6695 21.3989C84.8689 20.2073 84.8689 18.2753 81.6695 17.0837L56.6605 7.7692C53.4611 6.57759 48.2738 6.57759 45.0744 7.7692Z" stroke="#EF7F1A" stroke-miterlimit="22.9256"/>
<path d="M28.1188 14.113V24.3369" stroke="#EF7F1A" stroke-miterlimit="22.9256" stroke-linecap="round"/>
<path d="M35.2446 11.3246V26.8155" stroke="#EF7F1A" stroke-miterlimit="22.9256" stroke-linecap="round"/>
<path d="M43.6096 8.22644V30.2234" stroke="#EF7F1A" stroke-miterlimit="22.9256" stroke-linecap="round"/>
<path d="M52.2845 6.67737V31.7725" stroke="#EF7F1A" stroke-miterlimit="22.9256" stroke-linecap="round"/>
<path d="M60.6494 9.4657V28.9841" stroke="#EF7F1A" stroke-miterlimit="22.9256" stroke-linecap="round"/>
<path d="M67.7752 11.9443V26.5056" stroke="#EF7F1A" stroke-miterlimit="22.9256" stroke-linecap="round"/>
<path d="M75.5206 14.7326V23.4075" stroke="#EF7F1A" stroke-miterlimit="22.9256" stroke-linecap="round"/>
<path d="M16.9654 56.248L84.8152 56.5578" stroke="#EF7F1A" stroke-miterlimit="22.9256" stroke-linecap="round" stroke-linejoin="round"/>
<path d="M27.4991 61.205H74.5912" stroke="#EF7F1A" stroke-miterlimit="22.9256" stroke-linecap="round" stroke-linejoin="round"/>
<path d="M39.8918 65.8523H60.9593" stroke="#EF7F1A" stroke-miterlimit="22.9256" stroke-linecap="round" stroke-linejoin="round"/>
<path d="M26.8796 51.6008L34.3152 52.2204" stroke="#EF7F1A" stroke-miterlimit="22.9256" stroke-linecap="round" stroke-linejoin="round"/>
<path d="M68.3949 51.6008L76.1403 52.2204" stroke="#EF7F1A" stroke-miterlimit="22.9256" stroke-linecap="round" stroke-linejoin="round"/>
</svg>
