<svg width="123" height="86" viewBox="0 0 123 86" fill="none" xmlns="http://www.w3.org/2000/svg">
<path d="M25.4594 0.465454H116.126C117.015 0.465454 117.607 1.05805 117.607 1.65064V77.5024C117.607 78.0949 117.015 78.6875 116.126 78.6875H25.4594C24.8668 78.6875 24.2742 78.0949 24.2742 77.5024V65.3542H26.9408V76.3172H114.644V2.53952H26.9408V42.5395H24.2742V1.65064C24.2742 1.05805 24.8668 0.465454 25.4594 0.465454V0.465454Z" fill="#EF7F1A"/>
<path fill-rule="evenodd" clip-rule="evenodd" d="M32.5707 9.35437H63.9781V69.7987H32.5707V65.3543H47.0892C49.4596 65.3543 51.5337 63.2802 51.5337 60.6135V47.2802C51.5337 44.6136 49.4596 42.5395 47.0892 42.5395H32.5707V9.35437V9.35437Z" stroke="#EF7F1A" stroke-miterlimit="22.9256" stroke-linecap="round" stroke-linejoin="round"/>
<path fill-rule="evenodd" clip-rule="evenodd" d="M66.9406 7.57654H109.607V71.5764H66.9406V7.57654V7.57654ZM69.9036 10.5395H106.644V68.6135H69.9036V39.2802H69.0147C68.4221 39.2802 67.8295 38.6876 67.8295 38.095C67.8295 37.5024 68.4221 37.2061 69.0147 37.2061H69.9036V10.5395V10.5395Z" stroke="#EF7F1A" stroke-miterlimit="22.9256" stroke-linecap="round" stroke-linejoin="round"/>
<path d="M121.163 77.7986H20.7187V84.9097H121.163V77.7986Z" stroke="#EF7F1A" stroke-width="2" stroke-miterlimit="22.9256" stroke-linecap="round" stroke-linejoin="round"/>
<path d="M73.7554 37.2062H69.0146C68.3601 37.2062 67.8295 37.6705 67.8295 38.2432C67.8295 38.8159 68.3601 39.2802 69.0146 39.2802H73.7554C74.4099 39.2802 74.9406 38.8159 74.9406 38.2432C74.9406 37.6705 74.4099 37.2062 73.7554 37.2062Z" stroke="#EF7F1A" stroke-miterlimit="22.9256" stroke-linecap="round" stroke-linejoin="round"/>
<path fill-rule="evenodd" clip-rule="evenodd" d="M13.0149 42.5394H47.0889C49.4593 42.5394 51.5334 44.6135 51.5334 47.2802V60.6135C51.5334 63.2801 49.4593 65.3542 47.0889 65.3542H13.0149C10.6446 65.3542 8.86678 63.8727 8.27419 61.7987C4.42234 61.5024 1.16309 58.2431 1.16309 54.095C1.16309 49.9468 4.42234 46.6876 8.27419 46.3913C8.86678 44.0209 10.6446 42.5394 13.0149 42.5394V42.5394Z" stroke="#EF7F1A" stroke-width="2" stroke-miterlimit="22.9256"/>
<path d="M8.57038 56.7616C10.2068 56.7616 11.5333 55.435 11.5333 53.7986C11.5333 52.1623 10.2068 50.8357 8.57038 50.8357C6.93398 50.8357 5.60742 52.1623 5.60742 53.7986C5.60742 55.435 6.93398 56.7616 8.57038 56.7616Z" stroke="#EF7F1A" stroke-miterlimit="22.9256"/>
<path d="M38.2001 52.9098H34.052V61.2061H38.2001V52.9098Z" stroke="#EF7F1A" stroke-miterlimit="22.9256"/>
<path d="M34.0517 53.5024C32.8665 52.9098 31.9776 52.0209 31.385 51.4283C30.7924 50.8357 30.4961 50.2431 30.4961 49.9468C30.1998 49.3543 29.9035 48.7617 29.9035 48.1691C29.9035 47.8728 29.9035 47.2802 29.6073 46.9839C29.6073 46.6876 29.6073 46.6876 29.311 46.3913C29.311 46.3913 29.0147 46.3913 28.7184 46.3913C28.4221 46.6876 28.1258 46.6876 28.1258 46.9839C27.8295 47.2802 27.8295 47.5765 27.5332 48.1691C27.5332 48.7617 27.5332 49.6505 27.5332 50.2431C27.8295 50.8357 27.8295 51.4283 28.1258 52.0209C28.1258 52.3172 28.4221 52.6135 28.4221 52.6135C28.4221 52.9098 28.4221 52.9098 27.5332 52.9098C26.6443 52.9098 24.8665 52.9098 23.9776 52.9098C23.0887 52.9098 23.0887 52.9098 22.7925 53.2061C22.7925 53.2061 22.4962 53.5024 22.4962 53.7987C22.4962 54.095 22.4962 54.3913 22.4962 54.3913C22.7925 54.6876 23.0887 54.9839 23.0887 55.2802C23.0887 55.5765 22.7925 55.5765 22.7925 55.8728C22.7925 56.1691 22.7924 56.1691 23.0887 56.4654C23.0887 56.7616 23.385 57.0579 23.385 57.0579C23.6813 57.3542 23.6813 57.3542 23.6813 57.3542C23.6813 57.3542 23.6813 57.3542 23.6813 57.6505C23.385 57.6505 23.385 57.9468 23.385 58.2431C23.385 58.5394 23.6813 58.8357 23.6813 58.8357C23.9776 59.132 24.2739 59.4283 24.5702 59.4283C24.5702 59.4283 24.5702 59.4283 24.5702 59.7246C24.2739 59.7246 24.2739 59.7246 24.2739 60.0209C24.2739 60.3172 24.5702 60.6135 24.8665 60.9098C24.8665 60.9098 25.1628 61.2061 26.348 61.2061C27.5332 61.2061 29.311 61.2061 30.7924 60.9098C32.2739 60.9098 33.1628 60.3172 34.0517 60.0209" stroke="#EF7F1A" stroke-miterlimit="22.9256"/>
<path d="M9.45955 56.4654C9.45955 55.5765 9.75584 54.6876 9.16325 54.3913C8.27437 53.7987 7.08918 53.7987 5.6077 54.9839C4.12622 55.8728 2.64475 57.9469 2.34845 60.3172C2.34845 62.3913 3.23734 65.058 5.31141 66.8357C7.38548 68.6135 10.6447 69.7987 13.3114 70.6876C15.6818 71.5765 17.7558 72.4654 18.941 73.6505C20.1262 74.8357 20.4225 76.3172 20.7188 77.7987" stroke="#EF7F1A" stroke-miterlimit="22.9256"/>
<path d="M13.0148 65.3542C14.4963 67.132 15.6815 68.9098 17.163 70.3913C18.3482 71.5765 19.5333 72.4653 20.1259 73.6505C20.7185 74.8357 20.7185 76.3172 20.7185 77.7987" stroke="#EF7F1A" stroke-miterlimit="22.9256"/>
</svg>
