<svg width="83" height="72" viewBox="0 0 83 72" fill="none" xmlns="http://www.w3.org/2000/svg">
<g id="&#208;&#161;&#208;&#187;&#208;&#190;&#208;&#185;_x0020_1">
<path id="Vector" fill-rule="evenodd" clip-rule="evenodd" d="M1.6001 11.9009H61.5484V18.9293C61.135 18.9293 60.9283 18.7226 60.5148 18.7226C57.6208 18.7226 55.3469 21.2032 55.3469 24.0973V48.9035H1.6001V11.9009V11.9009Z" stroke="#8C8C94" stroke-width="2.26957" stroke-miterlimit="22.9256" stroke-linecap="round" stroke-linejoin="round"/>
<path id="Vector_2" fill-rule="evenodd" clip-rule="evenodd" d="M1.6001 48.9034H55.3469V53.4512C53.4864 54.8983 52.2461 57.1722 52.2461 59.6528C52.2461 63.9939 55.967 67.7148 60.3081 67.7148C60.7215 67.7148 61.135 67.5081 61.5484 67.5081V70.8156H1.6001V48.9034V48.9034Z" stroke="#8C8C94" stroke-width="2.26957" stroke-miterlimit="22.9256" stroke-linecap="round" stroke-linejoin="round"/>
<path id="Vector_3" d="M16.0703 13.968H4.49411V46.8362H16.0703V13.968Z" stroke="#8C8C94" stroke-width="1.0087" stroke-miterlimit="22.9256" stroke-linecap="round" stroke-linejoin="round"/>
<path id="Vector_4" d="M30.7474 13.968H17.9308V46.8362H30.7474V13.968Z" stroke="#8C8C94" stroke-width="1.0087" stroke-miterlimit="22.9256" stroke-linecap="round" stroke-linejoin="round"/>
<path id="Vector_5" d="M45.2177 13.968H32.4012V46.8362H45.2177V13.968Z" stroke="#8C8C94" stroke-width="1.0087" stroke-miterlimit="22.9256" stroke-linecap="round" stroke-linejoin="round"/>
<path id="Vector_6" fill-rule="evenodd" clip-rule="evenodd" d="M47.0781 13.968H59.8947V18.9293C57.2073 19.136 55.3469 21.4099 55.3469 24.0972V46.8362H47.0781V13.968V13.968Z" stroke="#8C8C94" stroke-width="1.0087" stroke-miterlimit="22.9256" stroke-linecap="round" stroke-linejoin="round"/>
<path id="Vector_7" d="M8.83521 54.0714V65.4409" stroke="#8C8C94" stroke-width="1.0087" stroke-miterlimit="22.9256" stroke-linecap="round" stroke-linejoin="round"/>
<path id="Vector_8" d="M15.657 54.0714V65.4409" stroke="#8C8C94" stroke-width="1.0087" stroke-miterlimit="22.9256" stroke-linecap="round" stroke-linejoin="round"/>
<path id="Vector_9" d="M22.0652 54.0714V65.4409" stroke="#8C8C94" stroke-width="1.0087" stroke-miterlimit="22.9256" stroke-linecap="round" stroke-linejoin="round"/>
<path id="Vector_10" d="M28.8869 54.0714V65.4409" stroke="#8C8C94" stroke-width="1.0087" stroke-miterlimit="22.9256" stroke-linecap="round" stroke-linejoin="round"/>
<path id="Vector_11" d="M35.2952 54.0714V65.4409" stroke="#8C8C94" stroke-width="1.0087" stroke-miterlimit="22.9256" stroke-linecap="round" stroke-linejoin="round"/>
<path id="Vector_12" d="M42.1169 54.0714V65.4409" stroke="#8C8C94" stroke-width="1.0087" stroke-miterlimit="22.9256" stroke-linecap="round" stroke-linejoin="round"/>
<path id="Vector_13" d="M48.5252 54.0714V65.4409" stroke="#8C8C94" stroke-width="1.0087" stroke-miterlimit="22.9256" stroke-linecap="round" stroke-linejoin="round"/>
<path id="Vector_14" fill-rule="evenodd" clip-rule="evenodd" d="M65.6828 53.6581C67.3365 55.1051 68.3701 57.1723 68.3701 59.6529C68.3701 63.994 64.8559 67.7149 60.3081 67.7149C55.967 67.7149 52.2461 63.994 52.2461 59.6529C52.2461 57.1723 53.4864 54.8984 55.3469 53.4513V24.0973C55.3469 21.2033 57.6208 18.7227 60.5148 18.7227C63.4089 18.7227 65.6828 21.2033 65.6828 24.0973V53.6581V53.6581Z" stroke="#8C8C94" stroke-width="2.26957" stroke-miterlimit="22.9256" stroke-linecap="round" stroke-linejoin="round"/>
<path id="Vector_15" fill-rule="evenodd" clip-rule="evenodd" d="M60.5148 23.8905C61.5484 23.8905 62.3753 24.9241 62.3753 25.9577V56.552C63.4089 57.1722 64.2357 58.4125 64.2357 59.8595C64.2357 61.9267 62.582 63.7871 60.3081 63.7871C58.2409 63.7871 56.3804 61.9267 56.3804 59.8595C56.3804 58.2057 57.2073 56.9654 58.6543 56.3453V25.9577C58.6543 24.9241 59.4812 23.8905 60.5148 23.8905V23.8905Z" stroke="#8C8C94" stroke-width="2.26957" stroke-miterlimit="22.9256" stroke-linecap="round" stroke-linejoin="round"/>
<path id="Vector_16" fill-rule="evenodd" clip-rule="evenodd" d="M62.3753 27.198V56.552C63.4089 57.1722 64.2357 58.4125 64.2357 59.8595C64.2357 61.9267 62.582 63.7871 60.3081 63.7871C58.2409 63.7871 56.3804 61.9267 56.3804 59.8595C56.3804 58.2057 57.2073 56.9654 58.6543 56.3453V27.198H62.3753Z" fill="#9494A8" stroke="#8C8C94" stroke-width="2.26957" stroke-miterlimit="22.9256" stroke-linecap="round" stroke-linejoin="round"/>
<path id="Vector_17" fill-rule="evenodd" clip-rule="evenodd" d="M75.1918 37.3273V41.2549V37.3273ZM75.1918 48.2833V52.4177V48.2833Z" stroke="#8C8C94" stroke-width="2.26957" stroke-miterlimit="22.9256" stroke-linecap="round" stroke-linejoin="round"/>
<path id="Vector_18" fill-rule="evenodd" clip-rule="evenodd" d="M81.6001 48.6968L78.0859 46.6296L81.6001 48.6968ZM72.0911 43.1154L68.5768 41.0482L72.0911 43.1154Z" stroke="#8C8C94" stroke-width="2.26957" stroke-miterlimit="22.9256" stroke-linecap="round" stroke-linejoin="round"/>
<path id="Vector_19" d="M78.0859 43.1154L81.6001 41.0482M68.5768 48.6968L72.0911 46.6296L68.5768 48.6968Z" stroke="#8C8C94" stroke-width="2.26957" stroke-miterlimit="22.9256" stroke-linecap="round" stroke-linejoin="round"/>
<path id="Vector_20" d="M75.1918 48.2833C77.1327 48.2833 78.706 46.7099 78.706 44.7691C78.706 42.8283 77.1327 41.2549 75.1918 41.2549C73.251 41.2549 71.6776 42.8283 71.6776 44.7691C71.6776 46.7099 73.251 48.2833 75.1918 48.2833Z" stroke="#8C8C94" stroke-width="2.26957" stroke-miterlimit="22.9256" stroke-linecap="round" stroke-linejoin="round"/>
<path id="Vector_21" fill-rule="evenodd" clip-rule="evenodd" d="M6.97478 1.35828H56.1738C57.0006 3.42546 61.5484 11.6942 61.5484 11.9009L1.80682 11.6942L6.97478 1.35828V1.35828Z" stroke="#8C8C94" stroke-width="2.26957" stroke-miterlimit="22.9256" stroke-linecap="round" stroke-linejoin="round"/>
<path id="Vector_22" d="M11.5226 4.25232L9.04193 8.5934" stroke="#8C8C94" stroke-width="1.0087" stroke-miterlimit="22.9256" stroke-linecap="round" stroke-linejoin="round"/>
<path id="Vector_23" d="M17.7241 4.45898L16.6905 8.38663" stroke="#8C8C94" stroke-width="1.0087" stroke-miterlimit="22.9256" stroke-linecap="round" stroke-linejoin="round"/>
<path id="Vector_24" d="M24.5458 4.45898L24.1324 8.38663" stroke="#8C8C94" stroke-width="1.0087" stroke-miterlimit="22.9256" stroke-linecap="round" stroke-linejoin="round"/>
<path id="Vector_25" d="M31.5742 4.25232V8.5934" stroke="#8C8C94" stroke-width="1.0087" stroke-miterlimit="22.9256" stroke-linecap="round" stroke-linejoin="round"/>
<path id="Vector_26" d="M45.4243 4.45904L46.4579 8.38669M51.6259 4.25232L54.1065 8.5934L51.6259 4.25232ZM31.5742 4.25232V8.5934V4.25232ZM38.6026 4.45904L39.0161 8.38669L38.6026 4.45904Z" stroke="#8C8C94" stroke-width="1.0087" stroke-miterlimit="22.9256" stroke-linecap="round" stroke-linejoin="round"/>
</g>
</svg>
