<svg width="83" height="73" viewBox="0 0 83 73" fill="none" xmlns="http://www.w3.org/2000/svg">
<g id="&#208;&#161;&#208;&#187;&#208;&#190;&#208;&#185;_x0020_1">
<path id="Vector" fill-rule="evenodd" clip-rule="evenodd" d="M1.56372 11.8127H61.5637V18.8582C61.3365 18.8582 60.8819 18.8582 60.4274 18.8582C57.7001 18.8582 55.2001 21.1309 55.2001 24.0855V49.0855H1.56372V11.8127V11.8127Z" stroke="#9494A8" stroke-width="2.21656" stroke-miterlimit="22.9256" stroke-linecap="round" stroke-linejoin="round"/>
<path id="Vector_2" fill-rule="evenodd" clip-rule="evenodd" d="M1.56372 49.0856H55.2001V53.4037C53.3819 54.7674 52.2455 57.0401 52.2455 59.5401C52.2455 64.0856 55.8819 67.7219 60.4274 67.7219C60.8819 67.7219 61.1092 67.7219 61.5637 67.4947V70.9037H1.56372V49.0856V49.0856Z" stroke="#9494A8" stroke-width="2.21656" stroke-miterlimit="22.9256" stroke-linecap="round" stroke-linejoin="round"/>
<path id="Vector_3" d="M16.1092 14.0856H4.29098V47.0401H16.1092V14.0856Z" stroke="#9494A8" stroke-width="1.10828" stroke-miterlimit="22.9256" stroke-linecap="round" stroke-linejoin="round"/>
<path id="Vector_4" d="M30.6547 14.0856H17.7002V47.0401H30.6547V14.0856Z" stroke="#9494A8" stroke-width="1.10828" stroke-miterlimit="22.9256" stroke-linecap="round" stroke-linejoin="round"/>
<path id="Vector_5" d="M45.4273 14.0856H32.4728V47.0401H45.4273V14.0856Z" stroke="#9494A8" stroke-width="1.10828" stroke-miterlimit="22.9256" stroke-linecap="round" stroke-linejoin="round"/>
<path id="Vector_6" fill-rule="evenodd" clip-rule="evenodd" d="M47.0182 14.0856H59.7455V18.8583C57.2455 19.0856 55.2001 21.3583 55.2001 24.0856V47.0401H47.0182V14.0856V14.0856Z" stroke="#9494A8" stroke-width="1.10828" stroke-miterlimit="22.9256" stroke-linecap="round" stroke-linejoin="round"/>
<path id="Vector_7" d="M8.60906 54.0856V65.4492" stroke="#9494A8" stroke-width="1.10828" stroke-miterlimit="22.9256" stroke-linecap="round" stroke-linejoin="round"/>
<path id="Vector_8" d="M15.4273 54.0856V65.4492" stroke="#9494A8" stroke-width="1.10828" stroke-miterlimit="22.9256" stroke-linecap="round" stroke-linejoin="round"/>
<path id="Vector_9" d="M22.0182 54.0856V65.4492" stroke="#9494A8" stroke-width="1.10828" stroke-miterlimit="22.9256" stroke-linecap="round" stroke-linejoin="round"/>
<path id="Vector_10" d="M28.8365 54.0856V65.4492" stroke="#9494A8" stroke-width="1.10828" stroke-miterlimit="22.9256" stroke-linecap="round" stroke-linejoin="round"/>
<path id="Vector_11" d="M35.2 54.0856V65.4492" stroke="#9494A8" stroke-width="1.10828" stroke-miterlimit="22.9256" stroke-linecap="round" stroke-linejoin="round"/>
<path id="Vector_12" d="M42.0182 54.0856V65.4492" stroke="#9494A8" stroke-width="1.10828" stroke-miterlimit="22.9256" stroke-linecap="round" stroke-linejoin="round"/>
<path id="Vector_13" d="M48.3819 54.0856V65.4492" stroke="#9494A8" stroke-width="1.10828" stroke-miterlimit="22.9256" stroke-linecap="round" stroke-linejoin="round"/>
<path id="Vector_14" fill-rule="evenodd" clip-rule="evenodd" d="M65.6546 53.631C67.4728 55.2219 68.3819 57.2674 68.3819 59.5401C68.3819 64.0856 64.7455 67.7219 60.4273 67.7219C55.8819 67.7219 52.2455 64.0856 52.2455 59.5401C52.2455 57.0401 53.3819 54.7674 55.2 53.4037V24.0855C55.2 21.131 57.7 18.8583 60.4273 18.8583C63.3819 18.8583 65.6546 21.131 65.6546 24.0855V53.631Z" stroke="#9494A8" stroke-width="2.21656" stroke-miterlimit="22.9256" stroke-linecap="round" stroke-linejoin="round"/>
<path id="Vector_15" fill-rule="evenodd" clip-rule="evenodd" d="M60.4274 23.8583C61.5637 23.8583 62.4728 24.7674 62.4728 25.9037V56.5856C63.6092 57.2674 64.291 58.4037 64.291 59.7674C64.291 62.0401 62.4728 63.8583 60.4274 63.8583C58.1546 63.8583 56.3365 62.0401 56.3365 59.7674C56.3365 58.4037 57.2455 57.0401 58.6092 56.3583V25.9037C58.6092 24.7674 59.5183 23.8583 60.4274 23.8583V23.8583Z" stroke="#9494A8" stroke-width="2.21656" stroke-miterlimit="22.9256" stroke-linecap="round" stroke-linejoin="round"/>
<path id="Vector_16" fill-rule="evenodd" clip-rule="evenodd" d="M62.4728 50.9038V56.5856C63.6092 57.2674 64.291 58.4038 64.291 59.7674C64.291 62.0402 62.4728 63.8584 60.4274 63.8584C58.1546 63.8584 56.3365 62.0402 56.3365 59.7674C56.3365 58.4038 57.2455 57.0402 58.6092 56.3584V50.9038H62.4728Z" fill="#9494A8" stroke="#9494A8" stroke-width="2.21656" stroke-miterlimit="22.9256" stroke-linecap="round" stroke-linejoin="round"/>
<path id="Vector_17" d="M75.2002 37.2675V52.4947" stroke="#9494A8" stroke-width="2.21656" stroke-miterlimit="22.9256" stroke-linecap="round" stroke-linejoin="round"/>
<path id="Vector_18" d="M81.5637 48.631L68.6092 41.131" stroke="#9494A8" stroke-width="2.21656" stroke-miterlimit="22.9256" stroke-linecap="round" stroke-linejoin="round"/>
<path id="Vector_19" d="M68.6092 48.631L81.5637 41.131" stroke="#9494A8" stroke-width="2.21656" stroke-miterlimit="22.9256" stroke-linecap="round" stroke-linejoin="round"/>
<path id="Vector_20" fill-rule="evenodd" clip-rule="evenodd" d="M7.24565 1.35828H56.3366C57.2457 3.40373 61.7911 11.5855 61.7911 11.8128L2.01838 11.5856L7.24565 1.35828V1.35828Z" stroke="#9494A8" stroke-width="2.21656" stroke-miterlimit="22.9256" stroke-linecap="round" stroke-linejoin="round"/>
<path id="Vector_21" d="M11.5637 4.08557L9.29098 8.40375" stroke="#9494A8" stroke-width="1.10828" stroke-miterlimit="22.9256" stroke-linecap="round" stroke-linejoin="round"/>
<path id="Vector_22" d="M17.9275 4.31274L17.0184 8.40365" stroke="#9494A8" stroke-width="1.10828" stroke-miterlimit="22.9256" stroke-linecap="round" stroke-linejoin="round"/>
<path id="Vector_23" d="M24.7455 4.31274L24.291 8.40365" stroke="#9494A8" stroke-width="1.10828" stroke-miterlimit="22.9256" stroke-linecap="round" stroke-linejoin="round"/>
<path id="Vector_24" d="M31.791 4.31274V8.40365" stroke="#9494A8" stroke-width="1.10828" stroke-miterlimit="22.9256" stroke-linecap="round" stroke-linejoin="round"/>
<path id="Vector_25" d="M45.6546 4.31284L46.5637 8.40375M52.0183 4.08557L54.291 8.40375L52.0183 4.08557ZM31.791 4.31284V8.40375V4.31284ZM38.8364 4.31284L39.291 8.40375L38.8364 4.31284Z" stroke="#9494A8" stroke-width="1.10828" stroke-miterlimit="22.9256" stroke-linecap="round" stroke-linejoin="round"/>
</g>
</svg>
