<svg width="69" height="74" viewBox="0 0 69 74" fill="none" xmlns="http://www.w3.org/2000/svg">
<g id="&#208;&#161;&#208;&#187;&#208;&#190;&#208;&#185;_x0020_1">
<path id="Vector" fill-rule="evenodd" clip-rule="evenodd" d="M2 12.5142H66.6012V23.8705V72.0886H44.2699V71.9025H2V12.5142Z" stroke="#9494A8" stroke-width="2.97619" stroke-miterlimit="22.9256" stroke-linecap="round" stroke-linejoin="round"/>
<path id="Vector_2" d="M17.7515 14.7482H4.99072V45.8386H17.7515V14.7482Z" stroke="#9494A8" stroke-width="1.4881" stroke-miterlimit="22.9256" stroke-linecap="round" stroke-linejoin="round"/>
<path id="Vector_3" d="M33.1042 14.7482H19.3466V45.8386H33.1042V14.7482Z" stroke="#9494A8" stroke-width="1.4881" stroke-miterlimit="22.9256" stroke-linecap="round" stroke-linejoin="round"/>
<path id="Vector_4" d="M49.0552 14.7482H35.2975V45.8386H49.0552V14.7482Z" stroke="#9494A8" stroke-width="1.4881" stroke-miterlimit="22.9256" stroke-linecap="round" stroke-linejoin="round"/>
<path id="Vector_5" d="M63.8098 14.7482H51.0491V45.8386H63.8098V14.7482Z" stroke="#9494A8" stroke-width="1.4881" stroke-miterlimit="22.9256" stroke-linecap="round" stroke-linejoin="round"/>
<path id="Vector_6" d="M17.7515 47.5142H4.99072V69.1099H17.7515V47.5142Z" stroke="#9494A8" stroke-width="1.4881" stroke-miterlimit="22.9256" stroke-linecap="round" stroke-linejoin="round"/>
<path id="Vector_7" d="M33.1042 47.5142H19.3466V69.1099H33.1042V47.5142Z" stroke="#9494A8" stroke-width="1.4881" stroke-miterlimit="22.9256" stroke-linecap="round" stroke-linejoin="round"/>
<path id="Vector_8" d="M49.0552 47.5142H35.2975V69.1099H49.0552V47.5142Z" stroke="#9494A8" stroke-width="1.4881" stroke-miterlimit="22.9256" stroke-linecap="round" stroke-linejoin="round"/>
<path id="Vector_9" d="M63.8098 47.5142H51.0491V69.1099H63.8098V47.5142Z" stroke="#9494A8" stroke-width="1.4881" stroke-miterlimit="22.9256" stroke-linecap="round" stroke-linejoin="round"/>
<path id="Vector_10" fill-rule="evenodd" clip-rule="evenodd" d="M8.18097 2.08862H61.2178C62.2147 3.95033 67 12.328 67 12.5142L2.59814 12.328L8.18097 2.08862V2.08862Z" stroke="#9494A8" stroke-width="2.97619" stroke-miterlimit="22.9256" stroke-linecap="round" stroke-linejoin="round"/>
<path id="Vector_11" d="M12.9663 4.8811L10.3743 9.16302" stroke="#9494A8" stroke-width="1.4881" stroke-miterlimit="22.9256" stroke-linecap="round" stroke-linejoin="round"/>
<path id="Vector_12" d="M19.7455 5.0675L18.7485 9.16325" stroke="#9494A8" stroke-width="1.4881" stroke-miterlimit="22.9256" stroke-linecap="round" stroke-linejoin="round"/>
<path id="Vector_13" d="M27.1227 5.0675L26.5245 9.16325" stroke="#9494A8" stroke-width="1.4881" stroke-miterlimit="22.9256" stroke-linecap="round" stroke-linejoin="round"/>
<path id="Vector_14" d="M34.6993 4.8811V9.16302" stroke="#9494A8" stroke-width="1.4881" stroke-miterlimit="22.9256" stroke-linecap="round" stroke-linejoin="round"/>
<path id="Vector_15" d="M49.6533 5.06727L50.6503 9.16302M56.4325 4.8811L59.0245 9.16302L56.4325 4.8811ZM34.6993 4.8811V9.16302V4.8811ZM42.276 5.06727L42.6748 9.16302L42.276 5.06727Z" stroke="#9494A8" stroke-width="1.4881" stroke-miterlimit="22.9256" stroke-linecap="round" stroke-linejoin="round"/>
</g>
</svg>
