<svg width="69" height="71" viewBox="0 0 69 71" fill="none" xmlns="http://www.w3.org/2000/svg">
<g id="&#208;&#161;&#208;&#187;&#208;&#190;&#208;&#185;_x0020_1">
<path id="Vector" d="M67.0176 1.42688H2.01758V69.0373H67.0176V1.42688Z" stroke="#9494A8" stroke-width="2.73438" stroke-miterlimit="22.9256" stroke-linecap="round" stroke-linejoin="round"/>
<path id="Vector_2" d="M45.0899 41.6277H2.01758V69.0373H45.0899V41.6277Z" stroke="#9494A8" stroke-width="2.73438" stroke-miterlimit="22.9256" stroke-linecap="round" stroke-linejoin="round"/>
<path id="Vector_3" d="M46.9172 37.5815H2.01758V41.6277H46.9172V37.5815Z" stroke="#9494A8" stroke-width="2.73438" stroke-miterlimit="22.9256" stroke-linecap="round" stroke-linejoin="round"/>
<path id="Vector_4" fill-rule="evenodd" clip-rule="evenodd" d="M2.01758 1.42688H67.0176L62.0577 10.955H7.89107L2.01758 1.42688Z" stroke="#9494A8" stroke-width="1.36719" stroke-miterlimit="22.9256" stroke-linecap="round" stroke-linejoin="round"/>
<path id="Vector_5" d="M7.89109 10.955V37.5815" stroke="#9494A8" stroke-width="1.36719" stroke-miterlimit="22.9256" stroke-linecap="round" stroke-linejoin="round"/>
<path id="Vector_6" d="M62.0578 10.955V69.0373" stroke="#9494A8" stroke-width="1.36719" stroke-miterlimit="22.9256" stroke-linecap="round" stroke-linejoin="round"/>
<path id="Vector_7" d="M45.0898 44.3687H62.0577" stroke="#9494A8" stroke-width="1.36719" stroke-miterlimit="22.9256" stroke-linecap="round" stroke-linejoin="round"/>
<path id="Vector_8" d="M20.9433 13.957H10.2405V37.5815H20.9433V13.957Z" stroke="#9494A8" stroke-width="1.36719" stroke-miterlimit="22.9256" stroke-linecap="round" stroke-linejoin="round"/>
<path id="Vector_9" d="M33.9955 13.957H23.2927V37.5815H33.9955V13.957Z" stroke="#9494A8" stroke-width="1.36719" stroke-miterlimit="22.9256" stroke-linecap="round" stroke-linejoin="round"/>
<path id="Vector_10" d="M46.7867 13.957H36.0839V37.5815H46.7867V13.957Z" stroke="#9494A8" stroke-width="1.36719" stroke-miterlimit="22.9256" stroke-linecap="round" stroke-linejoin="round"/>
<path id="Vector_11" d="M59.5778 13.957H48.875V44.3687H59.5778V13.957Z" stroke="#9494A8" stroke-width="1.36719" stroke-miterlimit="22.9256" stroke-linecap="round" stroke-linejoin="round"/>
<path id="Vector_12" d="M46.6561 39.8004V44.3687" stroke="#9494A8" stroke-width="1.36719" stroke-miterlimit="22.9256" stroke-linecap="round" stroke-linejoin="round"/>
<path id="Vector_13" d="M24.4673 41.6277L2.67014 69.0373" stroke="#9494A8" stroke-width="1.36719" stroke-miterlimit="22.9256" stroke-linecap="round" stroke-linejoin="round"/>
<path id="Vector_14" d="M34.5176 41.6277L12.7204 69.0373" stroke="#9494A8" stroke-width="1.36719" stroke-miterlimit="22.9256" stroke-linecap="round" stroke-linejoin="round"/>
<path id="Vector_15" d="M45.2204 41.6277L23.4232 69.0373" stroke="#9494A8" stroke-width="1.36719" stroke-miterlimit="22.9256" stroke-linecap="round" stroke-linejoin="round"/>
<path id="Vector_16" d="M45.0899 55.3325L34.2565 69.0373" stroke="#9494A8" stroke-width="1.36719" stroke-miterlimit="22.9256" stroke-linecap="round" stroke-linejoin="round"/>
<path id="Vector_17" d="M14.9393 41.6277L2.01758 57.9429" stroke="#9494A8" stroke-width="1.36719" stroke-miterlimit="22.9256" stroke-linecap="round" stroke-linejoin="round"/>
</g>
</svg>
