<svg width="69" height="78" viewBox="0 0 69 78" fill="none" xmlns="http://www.w3.org/2000/svg">
<g id="&#208;&#161;&#208;&#187;&#208;&#190;&#208;&#185;_x0020_1">
<path id="Vector" d="M17.7473 16.2916H5.21161V48.6369H17.7473V16.2916Z" stroke="#9494A8" stroke-width="1.3865" stroke-miterlimit="22.9256" stroke-linecap="round" stroke-linejoin="round"/>
<path id="Vector_2" d="M33.3783 16.2916H19.6045V48.6369H33.3783V16.2916Z" stroke="#9494A8" stroke-width="1.3865" stroke-miterlimit="22.9256" stroke-linecap="round" stroke-linejoin="round"/>
<path id="Vector_3" d="M49.0092 16.2916H35.2354V48.6369H49.0092V16.2916Z" stroke="#9494A8" stroke-width="1.3865" stroke-miterlimit="22.9256" stroke-linecap="round" stroke-linejoin="round"/>
<path id="Vector_4" d="M63.5569 16.2916H51.0212V48.6369H63.5569V16.2916Z" stroke="#9494A8" stroke-width="1.3865" stroke-miterlimit="22.9256" stroke-linecap="round" stroke-linejoin="round"/>
<path id="Vector_5" fill-rule="evenodd" clip-rule="evenodd" d="M1.80688 13.5059H66.8069V20.7797H66.6521V52.0416H44.2116V51.8868H1.80688V13.5059Z" stroke="#9494A8" stroke-width="2.77301" stroke-miterlimit="22.9256" stroke-linecap="round" stroke-linejoin="round"/>
<path id="Vector_6" d="M8.61646 58.8511V70.613" stroke="#9494A8" stroke-width="1.3865" stroke-miterlimit="22.9256" stroke-linecap="round" stroke-linejoin="round"/>
<path id="Vector_7" d="M15.8903 58.8511V70.613" stroke="#9494A8" stroke-width="1.3865" stroke-miterlimit="22.9256" stroke-linecap="round" stroke-linejoin="round"/>
<path id="Vector_8" d="M22.5449 58.8511V70.613" stroke="#9494A8" stroke-width="1.3865" stroke-miterlimit="22.9256" stroke-linecap="round" stroke-linejoin="round"/>
<path id="Vector_9" d="M29.664 58.8511V70.613" stroke="#9494A8" stroke-width="1.3865" stroke-miterlimit="22.9256" stroke-linecap="round" stroke-linejoin="round"/>
<path id="Vector_10" d="M36.4736 58.8511V70.613" stroke="#9494A8" stroke-width="1.3865" stroke-miterlimit="22.9256" stroke-linecap="round" stroke-linejoin="round"/>
<path id="Vector_11" d="M43.5926 58.8511V70.613" stroke="#9494A8" stroke-width="1.3865" stroke-miterlimit="22.9256" stroke-linecap="round" stroke-linejoin="round"/>
<path id="Vector_12" d="M50.402 58.8511V70.613" stroke="#9494A8" stroke-width="1.3865" stroke-miterlimit="22.9256" stroke-linecap="round" stroke-linejoin="round"/>
<path id="Vector_13" d="M57.6759 58.8511V70.613" stroke="#9494A8" stroke-width="1.3865" stroke-miterlimit="22.9256" stroke-linecap="round" stroke-linejoin="round"/>
<path id="Vector_14" fill-rule="evenodd" clip-rule="evenodd" d="M7.53307 2.05347H60.9259L66.8069 13.6606V16.1368H66.6521V75.7201H44.2116V75.5654H1.80688V13.1963L7.53307 2.05347Z" stroke="#9494A8" stroke-width="2.77301" stroke-miterlimit="22.9256" stroke-linecap="round" stroke-linejoin="round"/>
<path id="Vector_15" fill-rule="evenodd" clip-rule="evenodd" d="M10.0093 4.06543H20.0688L18.3664 11.1845H6.29501L10.0093 4.06543V4.06543ZM21.6164 4.06543H33.3783V11.1845H20.0688L21.6164 4.06543Z" stroke="#9494A8" stroke-width="1.3865" stroke-miterlimit="22.9256" stroke-linecap="round" stroke-linejoin="round"/>
<path id="Vector_16" fill-rule="evenodd" clip-rule="evenodd" d="M58.6044 4.06543H48.3901L50.0925 11.1845H62.3187L58.6044 4.06543V4.06543ZM46.8425 4.06543H35.0806V11.1845H48.3901L46.8425 4.06543Z" stroke="#9494A8" stroke-width="1.3865" stroke-miterlimit="22.9256" stroke-linecap="round" stroke-linejoin="round"/>
</g>
</svg>
