<svg width="73" height="71" viewBox="0 0 73 71" fill="none" xmlns="http://www.w3.org/2000/svg">
<g id="&#208;&#161;&#208;&#187;&#208;&#190;&#208;&#185;_x0020_1">
<path id="Vector" fill-rule="evenodd" clip-rule="evenodd" d="M1.53227 47.3239H71.2097L63.6291 68.9368H46.0484H8.30647L1.53227 47.3239Z" stroke="#9494A8" stroke-width="2.47191" stroke-miterlimit="22.9256" stroke-linecap="round" stroke-linejoin="round"/>
<path id="Vector_2" d="M18.6291 14.7432H5.08068V44.4206H18.6291V14.7432Z" stroke="#9494A8" stroke-width="1.1236" stroke-miterlimit="22.9256" stroke-linecap="round" stroke-linejoin="round"/>
<path id="Vector_3" d="M35.2419 14.7432H20.5645V44.4206H35.2419V14.7432Z" stroke="#9494A8" stroke-width="1.1236" stroke-miterlimit="22.9256" stroke-linecap="round" stroke-linejoin="round"/>
<path id="Vector_4" d="M52.0161 14.7432H37.3387V44.4206H52.0161V14.7432Z" stroke="#9494A8" stroke-width="1.1236" stroke-miterlimit="22.9256" stroke-linecap="round" stroke-linejoin="round"/>
<path id="Vector_5" d="M67.8226 14.7432H54.2742V44.4206H67.8226V14.7432Z" stroke="#9494A8" stroke-width="1.1236" stroke-miterlimit="22.9256" stroke-linecap="round" stroke-linejoin="round"/>
<path id="Vector_6" fill-rule="evenodd" clip-rule="evenodd" d="M1.53227 12.1626H71.2097V18.7755V47.4852H47.0162V47.3239H1.53227V12.1626Z" stroke="#9494A8" stroke-width="2.47191" stroke-miterlimit="22.9256" stroke-linecap="round" stroke-linejoin="round"/>
<path id="Vector_7" d="M13.4677 52.4851L16.5322 63.7754" stroke="#9494A8" stroke-width="1.1236" stroke-miterlimit="22.9256" stroke-linecap="round" stroke-linejoin="round"/>
<path id="Vector_8" d="M24.4355 52.1626L26.2097 63.6142" stroke="#9494A8" stroke-width="1.1236" stroke-miterlimit="22.9256" stroke-linecap="round" stroke-linejoin="round"/>
<path id="Vector_9" d="M35.7258 52.0012V63.7754" stroke="#9494A8" stroke-width="1.1236" stroke-miterlimit="22.9256" stroke-linecap="round" stroke-linejoin="round"/>
<g id="_1985373079440">
<path id="Vector_10" d="M58.1451 52.4851L54.9193 63.7754" stroke="#9494A8" stroke-width="1.1236" stroke-miterlimit="22.9256" stroke-linecap="round" stroke-linejoin="round"/>
<path id="Vector_11" d="M47.1774 52.1626L45.2419 63.6142" stroke="#9494A8" stroke-width="1.1236" stroke-miterlimit="22.9256" stroke-linecap="round" stroke-linejoin="round"/>
</g>
<path id="Vector_12" fill-rule="evenodd" clip-rule="evenodd" d="M7.66129 2.00122H65.0807C66.2097 3.9367 71.371 11.8399 71.371 12.1625L1.37097 12.0012L7.66129 2.00122V2.00122Z" stroke="#9494A8" stroke-width="2.47191" stroke-miterlimit="22.9256" stroke-linecap="round" stroke-linejoin="round"/>
<path id="Vector_13" d="M12.8226 4.74316L10.0807 8.93671" stroke="#9494A8" stroke-width="1.1236" stroke-miterlimit="22.9256" stroke-linecap="round" stroke-linejoin="round"/>
<path id="Vector_14" d="M20.2419 4.90442L18.9516 8.77539" stroke="#9494A8" stroke-width="1.1236" stroke-miterlimit="22.9256" stroke-linecap="round" stroke-linejoin="round"/>
<path id="Vector_15" d="M28.1451 4.90442L27.6613 8.93668" stroke="#9494A8" stroke-width="1.1236" stroke-miterlimit="22.9256" stroke-linecap="round" stroke-linejoin="round"/>
<path id="Vector_16" d="M36.371 4.90442V8.93668" stroke="#9494A8" stroke-width="1.1236" stroke-miterlimit="22.9256" stroke-linecap="round" stroke-linejoin="round"/>
<path id="Vector_17" d="M52.5 4.90445L53.7903 8.77542M59.9194 4.74316L62.6613 8.93671L59.9194 4.74316ZM36.371 4.90445V8.93671V4.90445ZM44.5968 4.90445L45.0806 8.93671L44.5968 4.90445Z" stroke="#9494A8" stroke-width="1.1236" stroke-miterlimit="22.9256" stroke-linecap="round" stroke-linejoin="round"/>
<path id="Vector_18" fill-rule="evenodd" clip-rule="evenodd" d="M7.66129 2.00122H65.0807C66.2097 3.9367 71.371 11.8399 71.371 12.1625L1.37097 12.0012L7.66129 2.00122V2.00122Z" stroke="#9494A8" stroke-width="2.47191" stroke-miterlimit="22.9256" stroke-linecap="round" stroke-linejoin="round"/>
<path id="Vector_19" d="M12.8226 4.74316L10.0807 8.93671" stroke="#9494A8" stroke-width="1.1236" stroke-miterlimit="22.9256" stroke-linecap="round" stroke-linejoin="round"/>
<path id="Vector_20" d="M20.2419 4.90442L18.9516 8.77539" stroke="#9494A8" stroke-width="1.1236" stroke-miterlimit="22.9256" stroke-linecap="round" stroke-linejoin="round"/>
<path id="Vector_21" d="M28.1451 4.90442L27.6613 8.93668" stroke="#9494A8" stroke-width="1.1236" stroke-miterlimit="22.9256" stroke-linecap="round" stroke-linejoin="round"/>
<path id="Vector_22" d="M36.371 4.90442V8.93668" stroke="#9494A8" stroke-width="1.1236" stroke-miterlimit="22.9256" stroke-linecap="round" stroke-linejoin="round"/>
<path id="Vector_23" d="M52.5 4.90445L53.7903 8.77542M59.9194 4.74316L62.6613 8.93671L59.9194 4.74316ZM36.371 4.90445V8.93671V4.90445ZM44.5968 4.90445L45.0806 8.93671L44.5968 4.90445Z" stroke="#9494A8" stroke-width="1.1236" stroke-miterlimit="22.9256" stroke-linecap="round" stroke-linejoin="round"/>
</g>
</svg>
